<svg width="107" height="95" viewBox="0 0 107 95" fill="none" xmlns="http://www.w3.org/2000/svg">
<path d="M13.275 11.8C9.75425 11.8 6.3777 13.1986 3.88816 15.6882C1.39861 18.1777 0 21.5543 0 25.075V81.125C0 84.6458 1.39861 88.0223 3.88816 90.5118C6.3777 93.0014 9.75425 94.4 13.275 94.4H92.925C94.6683 94.4 96.3945 94.0566 98.0051 93.3895C99.6157 92.7224 101.079 91.7445 102.312 90.5118C103.545 89.2791 104.522 87.8157 105.19 86.2051C105.857 84.5945 106.2 82.8683 106.2 81.125V30.1549C104.781 30.6727 103.285 30.9498 101.775 30.975C101.775 34.4958 100.376 37.8723 97.8868 40.3618C95.3973 42.8514 92.0208 44.25 88.5 44.25C84.9793 44.25 81.6027 42.8514 79.1132 40.3618C76.6236 37.8723 75.225 34.4958 75.225 30.975C71.7043 30.975 68.3277 29.5764 65.8382 27.0868C63.3486 24.5973 61.95 21.2207 61.95 17.7C61.9712 15.6476 62.468 13.628 63.4014 11.8H13.275ZM59 29.5C60.5648 29.5 62.0655 30.1216 63.1719 31.2281C64.2784 32.3345 64.9 33.8352 64.9 35.4C64.9 36.9648 64.2784 38.4655 63.1719 39.5719C62.0655 40.6784 60.5648 41.3 59 41.3C57.4352 41.3 55.9345 40.6784 54.8281 39.5719C53.7216 38.4655 53.1 36.9648 53.1 35.4C53.1 33.8352 53.7216 32.3345 54.8281 31.2281C55.9345 30.1216 57.4352 29.5 59 29.5ZM29.5 40.5389C30.0819 40.5386 30.6581 40.6531 31.1957 40.8759C31.7333 41.0986 32.2217 41.4252 32.6329 41.8369L63.2421 72.4579C64.0868 73.2176 65.1908 73.6244 66.3264 73.5943C67.4621 73.5643 68.543 73.0997 69.3464 72.2964C70.1497 71.493 70.6143 70.4121 70.6443 69.2764C70.6744 68.1408 70.2676 67.0368 69.5079 66.1921L66.7349 63.425L77.9921 52.1678C78.4031 51.7557 78.8914 51.4288 79.429 51.2057C79.9666 50.9826 80.543 50.8678 81.125 50.8678C81.707 50.8678 82.2834 50.9826 82.821 51.2057C83.3586 51.4288 83.8469 51.7557 84.2579 52.1678L97.35 65.254V81.1191C97.35 82.2927 96.8838 83.4182 96.054 84.248C95.2241 85.0779 94.0986 85.5441 92.925 85.5441H13.275C12.1014 85.5441 10.9759 85.0779 10.1461 84.248C9.3162 83.4182 8.85 82.2927 8.85 81.1191V59.3481L26.3671 41.8369C26.7788 41.4262 27.2674 41.1008 27.805 40.8791C28.3425 40.6573 28.9185 40.5438 29.5 40.5448M88.5 0C87.3264 0 86.2009 0.466204 85.3711 1.29605C84.5412 2.1259 84.075 3.25142 84.075 4.425V13.275H75.225C74.0514 13.275 72.9259 13.7412 72.0961 14.5711C71.2662 15.4009 70.8 16.5264 70.8 17.7C70.8 18.8736 71.2662 19.9991 72.0961 20.8289C72.9259 21.6588 74.0514 22.125 75.225 22.125H84.075V30.975C84.075 32.1486 84.5412 33.2741 85.3711 34.104C86.2009 34.9338 87.3264 35.4 88.5 35.4C89.6736 35.4 90.7991 34.9338 91.629 34.104C92.4588 33.2741 92.925 32.1486 92.925 30.975V22.125H101.775C102.949 22.125 104.074 21.6588 104.904 20.8289C105.734 19.9991 106.2 18.8736 106.2 17.7C106.2 16.5264 105.734 15.4009 104.904 14.5711C104.074 13.7412 102.949 13.275 101.775 13.275H92.925V4.425C92.925 3.25142 92.4588 2.1259 91.629 1.29605C90.7991 0.466204 89.6736 0 88.5 0Z" fill="#D9DEFF"/>
</svg>
