<svg width="21" height="21" viewBox="0 0 21 21" fill="none" xmlns="http://www.w3.org/2000/svg">
<path d="M10.4167 18.75C12.6268 18.75 14.7464 17.872 16.3092 16.3092C17.872 14.7464 18.75 12.6268 18.75 10.4167C18.75 8.20653 17.872 6.08691 16.3092 4.52411C14.7464 2.96131 12.6268 2.08333 10.4167 2.08333C8.20653 2.08333 6.08691 2.96131 4.52411 4.52411C2.96131 6.08691 2.08333 8.20653 2.08333 10.4167C2.08333 12.6268 2.96131 14.7464 4.52411 16.3092C6.08691 17.872 8.20653 18.75 10.4167 18.75ZM10.4167 0C11.7846 0 13.1391 0.269435 14.403 0.792922C15.6668 1.31641 16.8151 2.08369 17.7824 3.05097C18.7496 4.01825 19.5169 5.16657 20.0404 6.43038C20.5639 7.69419 20.8333 9.04873 20.8333 10.4167C20.8333 13.1793 19.7359 15.8289 17.7824 17.7824C15.8289 19.7359 13.1793 20.8333 10.4167 20.8333C4.65625 20.8333 0 16.1458 0 10.4167C0 7.654 1.09747 5.00448 3.05097 3.05097C5.00448 1.09747 7.654 0 10.4167 0ZM10.9375 5.20833V10.6771L15.625 13.4583L14.8438 14.7396L9.375 11.4583V5.20833H10.9375Z" fill="#69CB5A"/>
</svg>
