<svg width="27" height="27" viewBox="0 0 27 27" fill="none" xmlns="http://www.w3.org/2000/svg">
<path d="M13.32 0C5.96 0 0 5.97333 0 13.3333C0 20.6933 5.96 26.6667 13.32 26.6667C20.6933 26.6667 26.6667 20.6933 26.6667 13.3333C26.6667 5.97333 20.6933 0 13.32 0ZM8.66667 8C9.77333 8 10.6667 8.89333 10.6667 10C10.6667 11.1067 9.77333 12 8.66667 12C7.56 12 6.66667 11.1067 6.66667 10C6.66667 8.89333 7.56 8 8.66667 8ZM13.3333 21.3333C10.2933 21.3333 7.70667 19.12 6.66667 16H20C18.96 19.12 16.3733 21.3333 13.3333 21.3333ZM18 12C16.8933 12 16 11.1067 16 10C16 8.89333 16.8933 8 18 8C19.1067 8 20 8.89333 20 10C20 11.1067 19.1067 12 18 12Z" fill="#758BFD"/>
</svg>
